<svg id="eol7oezt2351" xmlns="http://www.w3.org/2000/svg" xmlns:xlink="http://www.w3.org/1999/xlink" viewBox="0 0 1440 320" shape-rendering="geometricPrecision" text-rendering="geometricPrecision"><path id="eol7oezt2352" d="M0,286.233129L40,270.233129C80,254.233129,160,222.233129,240,222.233129C320,222.233129,400,254.233129,480,264.933129C560,275.233129,640,265.233129,720,222.233129C800,179.233129,822.871166,168.437425,876.368098,102.665031C960.089615,1.408950,958.878612,3.916387,960,0C959.312883,3.071780,957.693252,-0.186503,960,-1.766871L960,-1.766871L960,-1.766871L1400,-1.766871C1360,-1.766871,1280,-1.766871,1200,-1.766871C1120,-1.766871,1040,0,960,0C880,0,800,-1.766871,720,-1.766871C640,-1.766871,560,-1.766871,480,-1.766871C400,-1.766871,320,-1.766871,240,-1.766871C160,-1.766871,80,-1.766871,40,-1.766871L0,-1.766871Z" fill="rgb(226,177,68)" stroke="none" stroke-width="1"/></svg>